# xmcd
#
# Track frame offsets:
#	150
#	9415
#	22518
#	36113
#	49298
#	62645
#	75574
#	87684
#	102468
#	114727
#	127394
#	141032
#	153241
#	165034
#	177846
#
# Disc length: 2600 seconds
#
# Revision: 0
# Processed by: cddbd v1.5.2PL0 Copyright (c) Steve Scherf et al.
# Submitted via: audiograbber 1.83.01
#
DISCID=b90a260f
DTITLE=Various Artist - The Soul Story: Volume 7 - Disc 1
DYEAR=2006
DGENRE=Soul
TTITLE0=James Brown - Papa's Got A Brand New Bag (Parts 1 and 2)
TTITLE1=Smokey Robinson and the Miracles - The Tracks Of My Tears
TTITLE2=Marvin Gaye - Ain't That Peculiar
TTITLE3=Etta James - All I Could Do Was Cry
TTITLE4=Martha and the Vandellas - Nowhere To Run
TTITLE5=Garland Green - Jealous Kind Of Fella
TTITLE6=The Supremes - You Keep Me Hangin' On
TTITLE7=The Originals - Baby, I'm For Real
TTITLE8=The Four Tops - I Can't Help Myself (Sugar Pie, Honey Bunch)
TTITLE9=Mary Wells - My Guy
TTITLE10=The Jackson 5 - The Love You Save
TTITLE11=Betty Everett - There'll Come A Time
TTITLE12=Jerry Butler - What's The Use Of Breaking Up
TTITLE13=The Marvelettes - Don't Mess With Bill
TTITLE14=Bill Withers - Lean On Me
EXTD=
EXTT0=
EXTT1=
EXTT2=
EXTT3=
EXTT4=
EXTT5=
EXTT6=
EXTT7=
EXTT8=
EXTT9=
EXTT10=
EXTT11=
EXTT12=
EXTT13=
EXTT14=
PLAYORDER=
